<?xml version="1.0" standalone="no"?>
<!DOCTYPE svg PUBLIC "-//W3C//DTD SVG 20010904//EN"
 "http://www.w3.org/TR/2001/REC-SVG-20010904/DTD/svg10.dtd">
<svg version="1.0" xmlns="http://www.w3.org/2000/svg"
 width="1280.000000pt" height="640.000000pt" viewBox="0 0 1280.000000 640.000000"
 preserveAspectRatio="xMidYMid meet">
<metadata>
Created by potrace 1.15, written by Peter Selinger 2001-2017
</metadata>
<g transform="translate(0.000000,640.000000) scale(0.100000,-0.100000)"
fill="#e40101" stroke="none">
<path d="M9966 5234 c-133 -66 -144 -74 -110 -74 34 0 36 -1 19 -13 -16 -12
-7 -15 66 -20 46 -4 108 -7 137 -7 l52 0 0 -1257 c0 -1204 -1 -1260 -19 -1298
-10 -22 -35 -56 -55 -74 -39 -38 -45 -51 -21 -51 8 0 12 -6 9 -13 -6 -16 228
-27 552 -27 l182 0 61 45 c62 46 71 59 49 69 -10 5 -10 7 0 12 30 14 3 21
-125 33 -85 8 -151 19 -173 29 l-35 17 -3 1229 c-1 863 1 1241 9 1270 8 29 28
58 70 99 32 32 59 60 59 62 0 3 -7 5 -17 5 -14 0 -14 2 2 20 18 20 17 20 -271
19 l-289 0 -149 -75z"/>
<path d="M1775 5216 c-267 -37 -475 -115 -700 -265 -120 -79 -302 -256 -398
-386 -310 -421 -365 -1041 -133 -1510 91 -184 211 -363 310 -461 97 -97 197
-164 371 -250 140 -69 293 -114 455 -134 210 -25 616 -5 967 49 120 19 482 97
560 122 l31 10 4 359 3 359 58 58 c55 56 70 83 46 83 -8 0 -9 4 0 13 9 12 -25
15 -201 20 -116 4 -310 7 -430 7 l-219 0 -147 -82 c-136 -77 -144 -83 -114
-86 32 -3 33 -4 15 -18 -19 -16 -22 -16 400 2 l147 6 0 -314 0 -315 -87 -26
c-261 -78 -556 -86 -808 -22 -240 61 -449 181 -635 367 -186 185 -310 399
-375 648 -26 97 -28 123 -32 345 -5 228 -4 245 20 350 82 364 275 615 594 774
102 51 220 87 329 102 126 16 357 7 457 -20 112 -29 283 -104 384 -168 87 -54
173 -127 173 -148 0 -5 -18 -39 -39 -75 -30 -48 -36 -66 -25 -68 8 -2 14 -10
14 -19 0 -13 9 -14 57 -8 57 7 60 9 183 125 211 199 222 213 211 242 -28 75
-352 222 -631 287 -228 53 -608 75 -815 47z"/>
<path d="M11820 4313 c-80 -8 -201 -37 -289 -69 -287 -102 -490 -321 -562
-609 -19 -75 -23 -116 -23 -250 1 -396 121 -676 374 -867 271 -206 669 -245
980 -97 91 44 154 85 243 162 60 52 72 73 36 64 l-21 -6 21 23 c11 12 21 25
21 28 0 3 -49 -15 -109 -39 -206 -82 -383 -103 -530 -63 -217 61 -419 231
-545 461 -63 115 -121 298 -99 312 5 3 76 9 157 13 l149 7 436 178 c240 97
453 185 475 194 37 16 38 18 33 53 -11 68 -92 215 -154 279 -104 106 -234 181
-362 207 -77 16 -181 24 -231 19z m100 -199 c56 -26 171 -122 199 -167 23 -38
36 -105 27 -141 -10 -42 -256 -155 -835 -384 -20 -8 -9 280 14 368 45 166 144
281 287 332 73 26 243 21 308 -8z m-577 -721 c-7 -2 -19 -2 -25 0 -7 3 -2 5
12 5 14 0 19 -2 13 -5z"/>
<path d="M4405 4296 c-211 -41 -430 -152 -578 -295 -120 -115 -206 -266 -249
-437 -29 -116 -31 -376 -5 -494 92 -409 357 -650 812 -736 134 -25 337 -23
438 4 336 92 603 310 700 570 47 128 60 219 54 386 -8 236 -65 426 -181 600
-136 205 -349 341 -613 392 -112 22 -294 26 -378 10z m245 -186 c211 -62 356
-236 429 -515 73 -278 79 -588 14 -768 -53 -147 -135 -232 -290 -298 -69 -29
-89 -33 -168 -33 -297 -1 -526 236 -640 663 -97 361 -63 658 95 825 128 135
353 186 560 126z"/>
<path d="M6590 4285 c-358 -98 -617 -313 -725 -600 -47 -124 -58 -197 -58
-375 0 -144 3 -177 26 -261 67 -253 246 -468 495 -593 212 -107 559 -151 762
-97 344 92 602 303 706 577 100 267 63 645 -90 905 -119 201 -277 328 -504
405 -201 69 -447 84 -612 39z m338 -156 c269 -93 438 -433 459 -924 15 -363
-81 -560 -326 -667 -71 -31 -83 -33 -181 -32 -85 0 -116 5 -163 23 -200 79
-362 310 -452 648 -142 531 -3 899 366 968 91 17 220 10 297 -16z"/>
<path d="M8850 4254 c-174 -25 -289 -60 -408 -124 -243 -131 -374 -332 -397
-606 -20 -247 106 -480 326 -601 124 -68 180 -83 326 -90 l121 -6 0 -87 c0
-102 18 -175 62 -243 16 -26 30 -51 30 -56 0 -4 -53 -11 -117 -14 -194 -10
-381 -50 -526 -113 -247 -109 -408 -312 -424 -534 -11 -155 36 -270 162 -396
68 -68 97 -89 185 -133 300 -148 717 -157 1065 -22 216 83 409 247 495 420 39
79 49 128 50 241 0 116 -17 188 -72 300 -35 73 -57 101 -152 195 -61 61 -149
139 -196 175 -138 106 -170 140 -170 187 0 75 42 137 200 293 81 80 158 163
172 185 14 22 38 76 53 120 25 74 27 89 23 200 -8 190 -61 323 -186 465 l-53
60 97 0 97 0 113 66 c63 36 117 70 120 75 3 5 -5 9 -18 9 l-23 0 25 20 c25 19
23 20 -465 18 -269 0 -501 -2 -515 -4z m114 -210 c119 -58 212 -182 271 -358
93 -276 66 -493 -77 -621 -73 -65 -143 -89 -243 -81 -147 12 -241 54 -329 146
-104 109 -145 232 -153 463 -10 260 35 365 190 444 78 39 94 43 192 40 76 -3
99 -8 149 -33z m161 -1805 c155 -99 331 -264 356 -335 8 -23 14 -83 14 -149 0
-102 -2 -113 -27 -156 -36 -62 -113 -129 -202 -178 -101 -56 -213 -75 -401
-68 -159 6 -242 25 -388 87 -111 47 -167 101 -223 215 -32 66 -37 85 -38 148
0 144 55 236 202 334 147 99 267 129 523 132 135 1 135 1 184 -30z"/>
</g>
</svg>
